<?xml version="1.0" standalone="no"?>
<!DOCTYPE svg PUBLIC "-//W3C//DTD SVG 20010904//EN"
 "http://www.w3.org/TR/2001/REC-SVG-20010904/DTD/svg10.dtd">
<svg version="1.0" xmlns="http://www.w3.org/2000/svg"
 width="300.000000pt" height="178.000000pt" viewBox="0 0 300.000000 178.000000"
 preserveAspectRatio="xMidYMid meet">
<metadata>
Created by potrace 1.10, written by Peter Selinger 2001-2011
</metadata>
<g transform="translate(0.000000,178.000000) scale(0.100000,-0.100000)"
fill="#000000" stroke="none">
<path d="M270 1483 c0 -10 13 -38 29 -62 32 -47 31 -60 -8 -95 -31 -28 -61
-119 -61 -185 0 -123 68 -227 170 -261 l55 -19 0 -63 0 -63 -35 0 c-19 1 -46
4 -60 8 -17 5 -12 0 15 -17 22 -14 50 -26 61 -26 30 0 41 -17 49 -80 13 -93
22 -100 27 -22 3 39 11 79 18 87 14 17 72 20 102 4 11 -6 22 -8 25 -5 3 3 -23
18 -58 34 l-64 29 -3 54 -3 54 61 18 c121 35 196 152 188 292 -5 71 -30 138
-63 165 -34 28 -35 45 -4 91 41 62 39 89 -3 44 -18 -20 -71 -54 -117 -78 -123
-61 -125 -67 -129 -289 -2 -101 -8 -178 -13 -178 -21 0 -95 87 -107 126 -30
101 -8 203 63 290 l35 42 -55 26 c-29 15 -67 43 -84 62 -23 26 -31 30 -31 17z
m111 -103 c18 -10 17 -13 -16 -61 -19 -28 -40 -69 -46 -92 -15 -57 -20 -167
-7 -167 5 0 8 -7 4 -15 -3 -8 -1 -15 4 -15 6 0 10 -6 10 -14 0 -7 21 -36 48
-65 50 -54 84 -65 100 -33 6 9 10 92 10 184 1 163 7 201 36 220 6 4 16 8 21 8
6 0 5 -4 -2 -8 -25 -16 -33 -69 -33 -231 0 -116 4 -171 12 -179 35 -35 115 14
154 95 36 75 38 187 5 255 -23 47 -82 94 -106 84 -9 -3 -13 -2 -10 4 3 6 14
10 24 10 9 0 21 4 26 9 6 5 21 12 34 16 19 6 23 4 18 -9 -3 -8 -1 -21 6 -28
32 -34 67 -98 76 -138 17 -78 -5 -186 -51 -241 -25 -30 -101 -79 -122 -79 -12
0 -32 -7 -44 -16 -18 -12 -22 -25 -22 -65 0 -28 5 -60 11 -71 9 -16 7 -24 -5
-36 -14 -15 -18 -15 -31 -1 -12 12 -13 22 -6 40 12 32 6 116 -10 135 -6 8 -17
14 -24 14 -31 0 -107 44 -135 78 -39 47 -64 129 -58 196 4 48 29 115 53 143
31 37 35 43 35 56 0 27 13 32 41 17z m250 -81 c11 -11 27 -36 35 -55 18 -43
18 -165 0 -208 -19 -46 -71 -102 -106 -115 l-30 -10 0 170 c0 194 10 239 54
239 15 0 35 -9 47 -21z"/>
<path d="M995 1468 c-36 -19 -55 -52 -55 -93 0 -71 51 -115 135 -115 40 0 47
3 56 26 12 33 5 43 -11 15 -8 -16 -20 -21 -49 -21 -94 0 -129 148 -44 181 37
14 83 2 93 -24 8 -19 9 -18 9 11 l1 32 -57 0 c-32 0 -67 -6 -78 -12z"/>
<path d="M1218 1435 c-57 -32 -56 -130 3 -160 106 -55 212 64 130 146 -34 33
-87 39 -133 14z m105 -27 c19 -22 23 -79 7 -109 -16 -30 -73 -26 -99 7 -62 79
26 177 92 102z"/>
<path d="M1481 1429 c-29 -76 -64 -146 -78 -156 -14 -11 -11 -13 23 -13 24 0
34 3 26 8 -9 6 -10 16 -4 32 12 33 67 34 82 2 5 -13 8 -28 5 -33 -4 -5 11 -9
31 -9 32 0 35 2 21 13 -9 6 -30 46 -48 87 -38 91 -45 100 -58 69z m24 -66 c5
-19 2 -23 -14 -23 -23 0 -24 3 -15 38 7 26 18 20 29 -15z"/>
<path d="M1658 1435 c-32 -18 -52 -72 -39 -106 15 -40 47 -62 102 -67 52 -5
69 4 69 38 -1 12 -3 11 -11 -2 -6 -12 -22 -18 -45 -18 -67 0 -107 73 -68 128
22 31 86 31 109 0 l16 -23 -3 30 c-3 29 -5 30 -53 32 -30 2 -61 -3 -77 -12z"/>
<path d="M1843 1443 c14 -4 17 -17 17 -82 0 -46 -5 -82 -12 -89 -9 -9 -2 -12
33 -12 35 1 40 3 27 11 -12 6 -18 22 -18 44 l0 35 50 0 c50 0 50 0 50 -33 0
-18 -5 -38 -12 -45 -9 -9 -2 -12 33 -12 35 1 40 3 27 11 -15 8 -18 24 -18 84
0 60 3 76 18 84 13 8 5 10 -33 10 -27 -1 -42 -3 -32 -6 12 -3 17 -15 17 -39
l0 -34 -50 0 c-49 0 -50 1 -50 30 0 17 7 33 18 39 13 8 5 10 -33 10 -27 -1
-42 -3 -32 -6z"/>
<path d="M2097 1442 c18 -12 20 -162 2 -173 -9 -6 4 -8 36 -8 28 1 42 3 33 6
-15 4 -18 17 -18 88 0 57 4 85 13 88 6 3 -8 6 -33 6 -25 0 -40 -3 -33 -7z"/>
<path d="M2240 1361 c0 -62 -4 -91 -12 -94 -7 -3 5 -6 27 -6 32 0 36 2 23 10
-14 8 -18 23 -18 67 l0 56 68 -67 c37 -37 71 -67 75 -67 4 0 7 40 7 89 0 62 4
91 13 94 6 3 -6 6 -28 6 -32 0 -36 -2 -22 -10 13 -8 17 -23 17 -70 l0 -59 -66
70 c-37 38 -70 70 -75 70 -5 0 -9 -40 -9 -89z"/>
<path d="M2503 1431 c-60 -38 -53 -129 12 -156 71 -30 125 -17 125 29 0 18 5
37 11 43 8 8 -2 11 -33 11 -33 1 -39 -2 -25 -9 10 -6 17 -22 17 -39 0 -27 -3
-30 -34 -30 -43 0 -76 38 -76 86 0 43 23 64 70 64 29 0 43 -6 55 -22 l16 -23
-3 30 c-3 28 -6 30 -53 33 -36 2 -59 -3 -82 -17z"/>
<path d="M940 1149 c0 -4 7 -9 15 -13 12 -4 15 -23 15 -85 0 -57 -4 -84 -15
-95 -21 -21 -20 -21 30 -21 25 0 45 3 45 8 0 4 -7 7 -15 7 -11 0 -15 12 -15
49 0 47 1 48 28 43 15 -3 30 -10 34 -16 4 -6 8 0 8 14 0 24 -3 26 -35 22 l-35
-4 0 41 c0 40 1 41 28 35 15 -4 29 -11 30 -16 7 -17 22 -7 22 15 0 21 -4 22
-70 22 -38 0 -70 -3 -70 -6z"/>
<path d="M1270 1045 c0 -67 -3 -87 -15 -91 -26 -10 -16 -20 20 -20 32 0 47 10
26 18 -4 2 -10 29 -13 61 l-5 58 74 -73 73 -72 0 86 c0 72 3 89 18 97 13 8 7
10 -28 10 -25 -1 -38 -3 -28 -6 12 -3 17 -18 20 -64 1 -32 0 -59 -3 -59 -4 0
-36 32 -73 70 l-66 70 0 -85z"/>
<path d="M1555 1097 c-46 -109 -65 -147 -74 -147 -6 0 -11 -4 -11 -9 0 -4 14
-8 30 -7 21 1 29 5 25 15 -11 30 5 51 40 51 29 0 34 -4 40 -30 4 -20 13 -30
25 -30 10 0 25 -3 34 -6 9 -3 16 -1 16 4 0 6 -7 12 -16 14 -9 2 -32 41 -54 93
l-39 90 -16 -38z m35 -79 c0 -5 -11 -8 -25 -8 -29 0 -29 0 -13 35 l12 26 13
-23 c7 -13 12 -26 13 -30z"/>
<path d="M1720 1043 c0 -55 -4 -93 -10 -93 -5 0 -10 -3 -10 -7 0 -5 16 -8 35
-9 19 0 35 3 35 8 0 4 -7 8 -15 8 -12 0 -15 13 -15 57 l0 57 69 -68 68 -68 7
48 c3 26 6 66 6 90 0 24 5 44 13 47 6 3 -6 6 -28 6 -22 0 -35 -3 -29 -7 10 -6
29 -122 20 -122 -2 0 -36 33 -75 73 l-71 72 0 -92z"/>
<path d="M1128 1113 c15 -6 17 -163 2 -163 -5 0 -10 -3 -10 -8 0 -4 18 -7 40
-7 45 0 46 0 25 21 -21 21 -20 127 1 148 14 15 12 16 -28 15 -24 0 -37 -3 -30
-6z"/>
<path d="M1966 1094 c-56 -57 -20 -145 64 -159 49 -8 76 0 83 25 6 23 -8 27
-17 5 -8 -22 -59 -19 -90 6 -35 28 -38 100 -4 123 33 23 74 20 92 -6 l16 -22
0 27 c0 26 -1 27 -59 27 -50 0 -62 -4 -85 -26z"/>
<path d="M2168 1113 c15 -6 17 -163 2 -163 -5 0 -10 -3 -10 -7 0 -5 20 -8 45
-9 25 0 45 3 45 8 0 4 -7 8 -15 8 -12 0 -15 15 -15 79 0 54 4 81 13 84 6 3 -8
5 -33 5 -25 0 -39 -2 -32 -5z"/>
<path d="M2303 1109 c23 -14 25 -146 2 -155 -33 -13 -12 -20 48 -16 59 4 82
16 70 35 -3 4 -10 1 -17 -8 -21 -30 -51 -15 -54 28 -3 31 0 37 15 37 11 0 24
-5 31 -12 9 -9 12 -7 12 8 0 17 -5 20 -30 16 -28 -4 -30 -2 -30 31 0 31 2 35
23 30 12 -3 28 -10 35 -16 9 -7 12 -4 12 12 0 19 -5 21 -67 21 -51 -1 -64 -3
-50 -11z"/>
<path d="M2473 1113 c14 -4 17 -17 17 -84 0 -46 -4 -79 -10 -79 -5 0 -10 -3
-10 -8 0 -4 18 -7 40 -7 22 0 40 3 40 7 0 5 -7 8 -15 8 -10 0 -15 10 -15 30 0
41 29 39 57 -4 15 -23 31 -35 53 -38 17 -3 33 -1 36 4 3 4 -3 8 -13 8 -10 0
-31 16 -46 35 -26 33 -27 37 -13 57 37 53 10 79 -81 77 -32 -1 -50 -3 -40 -6z
m91 -19 c27 -27 15 -64 -20 -64 -21 0 -24 5 -24 33 0 49 16 60 44 31z"/>
<path d="M967 795 c-5 -31 2 -50 10 -27 9 23 34 42 59 42 l24 0 0 -115 c0 -94
-3 -117 -15 -121 -34 -14 -11 -24 53 -23 64 0 66 1 45 16 -22 14 -23 23 -23
129 0 109 1 114 21 114 29 0 59 -18 59 -35 0 -8 5 -15 11 -15 6 0 8 7 5 16 -3
9 -6 23 -6 32 0 15 -15 17 -119 17 l-119 0 -5 -30z m129 -120 c1 -52 -1 -95
-4 -95 -4 0 -7 45 -7 100 -1 125 8 121 11 -5z"/>
<path d="M1440 819 c0 -4 7 -9 15 -13 12 -4 15 -27 15 -121 0 -96 -3 -115 -15
-115 -8 0 -15 -4 -15 -10 0 -6 28 -10 65 -10 63 0 86 12 45 23 -17 4 -20 14
-20 57 0 47 2 51 22 48 14 -2 34 -24 58 -63 35 -57 38 -60 81 -63 l44 -3 -27
23 c-14 13 -36 42 -47 66 -12 23 -26 42 -31 42 -6 0 -10 5 -10 10 0 6 7 10 15
10 38 0 44 89 8 106 -23 10 -203 21 -203 13z m150 -29 c37 -37 15 -90 -36 -90
-22 0 -24 3 -24 55 0 48 2 55 20 55 11 0 29 -9 40 -20z m56 -35 c1 -8 -1 -17
-5 -19 -4 -3 -8 7 -9 21 -2 27 10 25 14 -2z m-126 -65 c0 -5 -2 -10 -4 -10 -3
0 -8 5 -11 10 -3 6 -1 10 4 10 6 0 11 -4 11 -10z m120 -64 c0 -5 -7 -1 -15 10
-8 10 -14 24 -14 29 0 6 6 1 14 -9 8 -11 15 -24 15 -30z m20 -31 c0 -8 -2 -15
-4 -15 -2 0 -6 7 -10 15 -3 8 -1 15 4 15 6 0 10 -7 10 -15z"/>
<path d="M1934 819 c-2 -4 5 -9 16 -12 18 -5 20 -14 20 -115 0 -102 -1 -111
-22 -125 -22 -15 -16 -16 83 -16 l107 -1 4 35 c4 38 -7 48 -17 15 -7 -21 -40
-34 -72 -28 -14 2 -19 14 -21 56 l-3 52 36 0 c28 0 38 -5 45 -22 7 -18 9 -13
9 27 0 39 -2 46 -10 33 -6 -12 -22 -18 -44 -18 l-35 0 0 55 0 55 34 0 c26 0
39 -7 55 -27 l20 -28 1 32 0 32 -101 3 c-56 2 -103 0 -105 -3z m63 -61 c-3 -7
-5 -2 -5 12 0 14 2 19 5 13 2 -7 2 -19 0 -25z m10 -100 c-2 -59 -17 -45 -17
15 1 34 4 47 9 37 5 -8 9 -32 8 -52z m-3 -63 c-4 -8 -8 -15 -10 -15 -2 0 -4 7
-4 15 0 8 4 15 10 15 5 0 7 -7 4 -15z"/>
<path d="M2370 819 c0 -4 7 -9 15 -13 12 -4 15 -27 15 -121 0 -96 -3 -115 -15
-115 -8 0 -15 -4 -15 -10 0 -6 28 -10 65 -10 63 0 86 12 45 23 -17 4 -20 14
-20 63 0 32 4 54 8 49 65 -75 84 -106 72 -120 -11 -13 -4 -15 56 -15 l69 0
-26 23 c-14 12 -50 51 -79 86 l-54 63 44 39 c25 21 55 42 68 45 38 11 24 19
-33 19 -59 0 -63 -2 -40 -19 13 -9 8 -19 -35 -61 l-50 -49 0 41 c0 51 8 73 26
73 8 0 14 3 14 8 0 4 -29 7 -65 7 -36 0 -65 -3 -65 -6z m70 -71 c0 -13 3 -33
6 -45 4 -13 2 -23 -4 -23 -5 0 -12 20 -14 45 -2 25 0 45 4 45 5 0 8 -10 8 -22z
m77 -65 c39 -50 73 -103 66 -103 -5 0 -16 12 -25 28 -9 15 -28 39 -42 54 -14
15 -26 30 -26 33 0 11 13 5 27 -12z m-80 -55 c-3 -8 -6 -5 -6 6 -1 11 2 17 5
13 3 -3 4 -12 1 -19z"/>
<path d="M552 580 c0 -14 2 -19 5 -12 2 6 2 18 0 25 -3 6 -5 1 -5 -13z"/>
</g>
</svg>
